<?xml version="1.0" encoding="UTF-8"?>
<svg width="400" height="300" viewBox="0 0 400 300" xmlns="http://www.w3.org/2000/svg">
  <!-- Network Security Illustration -->
  <defs>
    <linearGradient id="blueGradient" x1="0%" y1="0%" x2="100%" y2="100%">
      <stop offset="0%" stop-color="#3498db" />
      <stop offset="100%" stop-color="#2980b9" />
    </linearGradient>
    <filter id="shadow" x="-20%" y="-20%" width="140%" height="140%">
      <feGaussianBlur in="SourceAlpha" stdDeviation="3" />
      <feOffset dx="2" dy="2" result="offsetblur" />
      <feComponentTransfer>
        <feFuncA type="linear" slope="0.5" />
      </feComponentTransfer>
      <feMerge>
        <feMergeNode />
        <feMergeNode in="SourceGraphic" />
      </feMerge>
    </filter>
  </defs>
  
  <!-- Background -->
  <rect x="0" y="0" width="400" height="300" fill="#f8f9fa" />
  
  <!-- Blockchain -->
  <g transform="translate(200, 150)" filter="url(#shadow)">
    <!-- Chain of blocks -->
    <rect x="-160" y="-20" width="40" height="40" rx="5" fill="url(#blueGradient)" />
    <rect x="-100" y="-20" width="40" height="40" rx="5" fill="url(#blueGradient)" />
    <rect x="-40" y="-20" width="40" height="40" rx="5" fill="url(#blueGradient)" />
    <rect x="20" y="-20" width="40" height="40" rx="5" fill="url(#blueGradient)" />
    <rect x="80" y="-20" width="40" height="40" rx="5" fill="url(#blueGradient)" />
    
    <!-- Chain links -->
    <line x1="-120" y1="0" x2="-100" y2="0" stroke="#3498db" stroke-width="4" />
    <line x1="-60" y1="0" x2="-40" y2="0" stroke="#3498db" stroke-width="4" />
    <line x1="0" y1="0" x2="20" y2="0" stroke="#3498db" stroke-width="4" />
    <line x1="60" y1="0" x2="80" y2="0" stroke="#3498db" stroke-width="4" />
    
    <!-- Block content -->
    <rect x="-155" y="-10" width="30" height="5" rx="2" fill="white" opacity="0.7" />
    <rect x="-155" y="-2" width="20" height="5" rx="2" fill="white" opacity="0.7" />
    <rect x="-155" y="6" width="25" height="5" rx="2" fill="white" opacity="0.7" />
    
    <rect x="-95" y="-10" width="30" height="5" rx="2" fill="white" opacity="0.7" />
    <rect x="-95" y="-2" width="20" height="5" rx="2" fill="white" opacity="0.7" />
    <rect x="-95" y="6" width="25" height="5" rx="2" fill="white" opacity="0.7" />
    
    <rect x="-35" y="-10" width="30" height="5" rx="2" fill="white" opacity="0.7" />
    <rect x="-35" y="-2" width="20" height="5" rx="2" fill="white" opacity="0.7" />
    <rect x="-35" y="6" width="25" height="5" rx="2" fill="white" opacity="0.7" />
    
    <rect x="25" y="-10" width="30" height="5" rx="2" fill="white" opacity="0.7" />
    <rect x="25" y="-2" width="20" height="5" rx="2" fill="white" opacity="0.7" />
    <rect x="25" y="6" width="25" height="5" rx="2" fill="white" opacity="0.7" />
    
    <rect x="85" y="-10" width="30" height="5" rx="2" fill="white" opacity="0.7" />
    <rect x="85" y="-2" width="20" height="5" rx="2" fill="white" opacity="0.7" />
    <rect x="85" y="6" width="25" height="5" rx="2" fill="white" opacity="0.7" />
  </g>
  
  <!-- Network and Packets -->
  <g transform="translate(200, 100)" filter="url(#shadow)">
    <!-- Network nodes -->
    <circle cx="-100" cy="0" r="15" fill="#2ecc71" />
    <circle cx="0" cy="-40" r="15" fill="#e74c3c" />
    <circle cx="100" cy="0" r="15" fill="#2ecc71" />
    <circle cx="0" cy="40" r="15" fill="#2ecc71" />
    
    <!-- Network connections -->
    <line x1="-100" y1="0" x2="0" y2="-40" stroke="#95a5a6" stroke-width="2" />
    <line x1="-100" y1="0" x2="0" y2="40" stroke="#95a5a6" stroke-width="2" />
    <line x1="0" y1="-40" x2="100" y2="0" stroke="#95a5a6" stroke-width="2" />
    <line x1="0" y1="40" x2="100" y2="0" stroke="#95a5a6" stroke-width="2" />
    <line x1="0" y1="-40" x2="0" y2="40" stroke="#e74c3c" stroke-width="2" stroke-dasharray="5,3" />
    
    <!-- Packets -->
    <rect x="-60" y="-25" width="10" height="10" rx="2" fill="#e74c3c" transform="rotate(45, -55, -20)" />
    <rect x="50" y="-25" width="10" height="10" rx="2" fill="#e74c3c" transform="rotate(45, 55, -20)" />
    <rect x="-60" y="15" width="10" height="10" rx="2" fill="#e74c3c" transform="rotate(45, -55, 20)" />
    <rect x="50" y="15" width="10" height="10" rx="2" fill="#e74c3c" transform="rotate(45, 55, 20)" />
    
    <!-- Node icons -->
    <rect x="-105" y="-5" width="10" height="10" rx="1" fill="white" />
    <rect x="-5" y="-45" width="10" height="10" rx="1" fill="white" />
    <rect x="95" y="-5" width="10" height="10" rx="1" fill="white" />
    <rect x="-5" y="35" width="10" height="10" rx="1" fill="white" />
  </g>
  
  <!-- Lock/Security Symbol -->
  <g transform="translate(200, 50)" filter="url(#shadow)">
    <rect x="-20" y="-10" width="40" height="30" rx="5" fill="#3498db" />
    <path d="M -10 -10 L -10 -20 C -10 -30 10 -30 10 -20 L 10 -10" stroke="#3498db" stroke-width="5" fill="none" />
    <circle cx="0" cy="5" r="5" fill="white" />
    <line x1="0" y1="5" x2="0" y2="12" stroke="white" stroke-width="2" />
  </g>
</svg>
